<?xml version="1.0" standalone="no"?>
<!DOCTYPE svg PUBLIC "-//W3C//DTD SVG 20010904//EN" "http://www.w3.org/TR/2001/REC-SVG-20010904/DTD/svg10.dtd">
<svg version="1.0" xmlns="http://www.w3.org/2000/svg" width="1200.000000pt" height="1200.000000pt" viewBox="0 0 1200.000000 1200.000000" preserveAspectRatio="xMidYMid meet">
    <metadata>
Created by potrace 1.16, written by Peter Selinger 2001-2019
</metadata>
    <g transform="translate(0.000000,1200.000000) scale(0.100000,-0.100000)" fill="#FFFFFF" stroke="none">
        <path d="M0 6000 l0 -6000 6000 0 6000 0 0 6000 0 6000 -6000 0 -6000 0 0
-6000z m6813 4838 c441 -359 1511 -1228 2378 -1933 866 -704 1594 -1296 1617
-1315 l41 -35 -48 -57 -49 -57 -1613 1311 c-888 721 -1957 1589 -2376 1930
l-763 619 -502 -408 c-277 -224 -1068 -866 -1758 -1427 -1322 -1075 -2468
-2004 -2485 -2016 -5 -4 -31 18 -57 50 l-47 57 702 571 c386 314 1294 1052
2017 1639 723 588 1495 1216 1715 1395 220 180 406 327 413 327 7 1 374 -292
815 -651z m570 -2102 c48 -18 74 -41 98 -88 16 -31 19 -60 19 -183 l0 -145
-1500 0 -1500 0 0 145 c0 157 8 192 53 233 57 53 0 51 1447 51 1109 0 1352 -2
1383 -13z m117 -1560 l0 -1035 -26 -20 -27 -21 -1451 0 c-1448 0 -1452 0
-1474 20 l-22 21 0 1034 0 1035 1500 0 1500 0 0 -1034z m-1074 -1971 c20 -8
49 -29 65 -46 l29 -31 0 41 0 41 65 0 66 0 -3 -152 -3 -153 -60 -3 -60 -3 -12
51 c-7 28 -22 65 -34 82 -25 34 -89 67 -132 68 -65 0 -131 -51 -162 -127 -31
-74 -37 -233 -14 -349 20 -102 95 -174 180 -174 40 0 107 29 131 56 21 24 53
97 63 142 l7 32 -91 0 -91 0 0 60 0 60 155 0 155 0 0 -44 c0 -24 -7 -79 -15
-122 -39 -206 -164 -315 -345 -302 -150 11 -256 118 -290 295 -18 92 -9 293
17 365 53 145 157 226 291 228 29 0 69 -7 88 -15z m-945 -185 c30 -104 56
-184 59 -177 2 7 27 91 55 187 l51 175 82 3 82 3 0 -431 0 -430 -70 0 -70 0
-1 273 0 272 -25 -85 c-14 -47 -32 -109 -40 -137 l-15 -53 -53 0 -53 0 -39
143 -39 142 -3 -277 -2 -278 -70 0 -70 0 0 430 0 430 83 0 83 0 55 -190z
m-3571 -961 c574 -466 2084 -1692 3565 -2896 286 -233 522 -423 525 -423 3 0
388 311 855 691 468 380 1407 1144 2089 1698 681 553 1367 1110 1524 1238
l285 231 43 -53 c24 -30 44 -58 44 -63 0 -5 -138 -122 -307 -259 -170 -137
-889 -722 -1599 -1299 -710 -577 -1661 -1349 -2113 -1716 l-821 -667 -453 368
c-1495 1215 -3112 2529 -3697 3003 -371 302 -679 554 -684 562 -11 16 74 127
89 116 6 -4 300 -243 655 -531z" />
        <path d="M5372 7714 c-14 -10 -22 -25 -22 -46 0 -26 24 -55 160 -194 88 -90
160 -167 160 -172 0 -4 -74 -79 -165 -166 -138 -132 -165 -162 -165 -186 0
-16 7 -36 16 -44 37 -38 58 -24 275 187 115 111 209 204 209 207 -1 14 -417
430 -430 430 -9 0 -26 -7 -38 -16z" />
        <path d="M5837 6982 c-22 -24 -21 -55 1 -76 17 -15 59 -16 438 -14 l418 3 15
26 c13 24 13 29 -2 53 l-17 26 -419 0 c-392 0 -419 -1 -434 -18z" />
    </g>
</svg>
